<svg width="90" height="90" viewBox="0 0 90 90" fill="none" xmlns="http://www.w3.org/2000/svg">
<path fill-rule="evenodd" clip-rule="evenodd" d="M60.2418 67.8838C59.5456 69.6574 58.7753 71.3091 57.9415 72.8232C54.6856 78.7421 50.8818 81.9397 47.2738 82.8821V67.8838H60.2418ZM64.8291 67.8838C62.9047 73.2653 60.3397 77.8156 57.3247 81.1721C64.6751 78.6924 71.1117 74.0632 75.8012 67.8838H64.8291ZM78.6388 63.5877H66.1765C67.5688 58.4788 68.4212 52.7956 68.5932 46.7841H83.5941C83.2579 52.6921 81.5621 58.4426 78.6388 63.5877ZM61.7109 63.5877H47.2738V46.7841H64.2944C64.1091 52.9041 63.1827 58.6006 61.7109 63.5877ZM42.9776 63.5877V46.7841H25.7029C25.8882 52.9041 26.8147 58.6006 28.2891 63.5877H42.9776V63.5877ZM29.7582 67.8838C30.4544 69.6574 31.2247 71.3091 32.0585 72.8232C35.3885 78.8797 39.2956 82.088 42.9776 82.9403V67.8838H29.7582ZM25.1709 67.8838C27.0926 73.2653 29.6603 77.8156 32.6753 81.1721C25.3249 78.6924 18.8883 74.0632 14.1988 67.8838H25.1709ZM23.8235 63.5877C22.4312 58.4788 21.5788 52.7956 21.4068 46.7841H6.40588C6.74209 52.6921 8.4379 58.4426 11.3612 63.5877H23.8235ZM83.6074 42.4906H68.5985C68.445 36.4844 67.6138 30.8012 66.2427 25.6871H78.7712C81.6528 30.8423 83.3077 36.5922 83.6074 42.4906V42.4906ZM75.9838 21.3935H64.9138C62.9815 15.9062 60.3821 11.2712 57.3247 7.86706C64.8424 10.3924 71.3277 15.1677 75.9838 21.3935ZM47.2738 21.3935H60.3344C59.6531 19.6154 58.8536 17.8848 57.9415 16.2132C54.6856 10.2971 50.8818 7.09942 47.2738 6.15706V21.3935ZM61.7797 25.6871H47.2738V42.4906H64.3024C64.1382 36.3759 63.2303 30.6847 61.7797 25.6871ZM42.9776 6.09618V21.3909H29.6656C30.3459 19.6147 31.1479 17.8835 32.0585 16.2132C35.3885 10.1594 39.2956 6.95118 42.9776 6.09618V6.09618ZM42.9776 25.6871H28.2203C26.7697 30.6821 25.8644 36.3785 25.6976 42.4906H42.9776V25.6871ZM32.6753 7.86441C29.6179 11.2712 27.0185 15.9062 25.0862 21.3909H14.0162C18.7198 15.0937 25.2275 10.3761 32.6753 7.86441V7.86441ZM23.76 25.6871H11.2288C8.34716 30.8423 6.69228 36.5922 6.39265 42.4906H21.4015C21.555 36.4844 22.3862 30.8012 23.7574 25.6871H23.76ZM44.9418 1.56441C21.2453 1.59618 2.04353 20.8138 2.04353 44.5182C2.04353 68.2412 21.2771 87.4747 45 87.4747C68.7229 87.4747 87.9538 68.2412 87.9538 44.5182C87.9538 20.8138 68.7547 1.59618 45.0582 1.56441H44.9418V1.56441Z" fill="#85A94E"/>
</svg>
