<svg xmlns="http://www.w3.org/2000/svg" width="90" height="90" viewBox="0 0 90 90">
  <defs>
    <style>
      .cls-1 {
        fill: #4e7838;
      }

      .cls-2 {
        fill: #6c9d41;
      }

      .cls-3 {
        fill: #94bb48;
      }
    </style>
  </defs>
  <g id="Layer_1" data-name="Layer 1">
    <g>
      <path class="cls-1" d="M67.09,61.33C56.88,53.55,55.66,46.8,55.52,42.55h7.41L63.76,41a14.42,14.42,0,0,0,1.87-7.15V32.3L57.6,27A16.44,16.44,0,0,0,51.28,1.23L50.11.65l-.19.09A16.45,16.45,0,0,0,32.4,27l-8,5.28v1.57A14.42,14.42,0,0,0,26.24,41l.83,1.53h7.41v.15C34.32,47,33,53.68,22.91,61.33a22.16,22.16,0,0,0-7.27,10.14l-.17.41a2.67,2.67,0,0,0-.07.26l-.87,2.59.13.06a30.55,30.55,0,0,0-.75,6.83C13.91,87.18,24.37,90,45,90s31.09-2.81,31.09-8.37C76.09,73.09,72.81,65.7,67.09,61.33Z"/>
      <g>
        <path class="cls-2" d="M44.5,68.49c1.53-6.94,2.88-14.34,3.7-18.78,1-5.53-7.37-6.51-10.81-7-.16,4.72-1.48,12.39-12.72,21a19.45,19.45,0,0,0-6.59,9.6c3,1.48,7.09,2.37,13.33,2.37C35.41,75.62,42.83,76.1,44.5,68.49Z"/>
        <path class="cls-2" d="M50.4,39.64a14.78,14.78,0,0,0,1.15-5.77L46,27.43c5.89-2.52,9.44-7.25,9.44-12.75A13.55,13.55,0,0,0,50.11,3.9h0a13.55,13.55,0,0,0-13,23.53l-9.78,6.44a11.49,11.49,0,0,0,1.52,5.77Z"/>
        <path class="cls-3" d="M44.22,5.66C52,6.87,40.63,15.94,37,15.51,33.6,15.11,36.9,4.52,44.22,5.66Z"/>
      </g>
    </g>
  </g>
</svg>
