<svg fill="none" xmlns="http://www.w3.org/2000/svg" viewBox="0 0 80 80"><path d="M17.33 40.01 17 31.04l45.51-5.68.32 12.51-45.5 2.14Z" fill="url(#a)"/><path d="M20.44 39.26c-.02-.4-.47-3.12-2.68-2.49-2.21.62-1.72 1.82-1.72 1.82s1.77 3.96 1.85 10.75c.08 6.79 4.27 4.94 4.27 4.94l2.17-6.3-2.2-5.55-1.69-3.15v-.02Z" fill="url(#b)"/><path d="M59.75 38.98c.02-.4.22-3.54 2.43-2.93 2.21.61 1.74 1.8 1.74 1.8s-1.45 4.39-1.48 11.18c-.03 6.79-5.37 4.93-5.37 4.93l-3.12-6.33 3.33-5.52 2.47-3.13Z" fill="url(#c)"/><path d="M19.61 45.48h24.43l3.21-3.45 7.66-9.18 2.08-6.04.78-7.09 3.76 1.79s.24-6.22-8.76-10.5C43.79 6.71 42.34 4 39.68 4c-4.67 0-9.53 5.63-14.24 8.35-5.74 3.31-9.68 15.25-8.1 21.27 1.31 4.98 1.3 8.97 2.26 11.86h.01Z" fill="url(#d)"/><path d="M40.39 9.33c1.41 1.13 2.17 2.48 2.26 4.01.17 2.98-1.12 6.31-4.43 10.48l-.59.26.89.75.56-.22c3.5-4.42 4.88-8.05 4.69-11.34-.11-1.87-1.05-3.57-2.71-4.9-.73-.58-4.04-2.37-5.54-3.15 0 0-.37.23-.68.42-.31.19-.68.41-.68.41 2.39.94 5.15 2.42 6.23 3.28ZM46.4 7.61c1.13.9 2.04 2.7 2.16 4.74.17 2.98-.86 6.4-4.17 10.58l-.15.19.89.75.12-.16c3.5-4.42 4.63-8.15 4.43-11.44-.06-.98-.33-2.21-.91-3.33 0 0-.89-.5-1.39-.81L45.7 7.09c.25.16.48.33.7.51v.01Z" fill="#231F20" style="mix-blend-mode:multiply" opacity=".3"/><path d="M35.61 14.66c.17 3.05-1.55 6.52-4.87 10.79l-.15.2.89.76.12-.16c3.5-4.52 5.32-8.3 5.13-11.66-.12-2.02-1.17-3.91-3.06-5.46-.61-.5-1.28-.84-2.09-1.23l-1.05.8c1.04.43 1.71.79 2.47 1.41 1.13.92 2.49 2.46 2.61 4.55Z" fill="#231F20" style="mix-blend-mode:multiply" opacity=".3"/><path d="M59.49 17.63c-.64-.99-2.3-3.77-4.7-3.23-.06.04.72-.77.67-.73-.31.2-.61.24-.88.19l-1.89 2.62-.48 4.41 2.75 9.6s.93 9.18 2.49 14.99h3.51c.74-2.66.93-6.78 1.36-12.15.79-9.9.11-11.12-2.83-15.69v-.01Z" fill="url(#e)"/><path d="m60.39 38.12-.6-9.26C58.26 23.2 56.5 17 47.9 14.1c-2.42-.66-4.42-1.16-7.15-.54-3.98-.26-15.63-.3-19.35 12.2l-1.55 5.9.27 6.47-.11 2.76c-.24 1.65-.48 4.34-.22 5.98l.47 3.55c2.62 9.47 9.99 19.09 13.1 22.34 2.05 2.15 4.8 3.25 6.9 3.25 2.1 0 4.86-1.09 6.9-3.25 3.22-3.42 11.53-13.04 13.1-22.34l.47-3.55c.25-1.65.02-4.33-.22-5.98l-.11-2.76-.01-.01Z" fill="#FDCFAC"/><path d="M53.21 64.29c.56-4.23-2.68 3.87-5.69 8.07l2.31-2.63c.86-1.27 3.14-3.64 3.38-5.44Z" fill="url(#f)"/><path d="M27.33 64.29c-.56-4.23 2.68 3.87 5.69 8.07l-2.31-2.63c-.86-1.27-3.14-3.64-3.38-5.44Z" fill="url(#g)"/><path d="M35.34 43.35c-1.6 3.87-4.48 9.48-4.2 12.75.28 3.27.98 3.23.98 3.23s.95-5.2 3.74-7.92c2.79-2.72-.51-8.05-.51-8.05l-.01-.01Z" fill="url(#h)"/><path d="M45.12 43.3c3.07 3.71 4.32 8.98 4.05 12.08-.27 3.1-.94 3.06-.94 3.06s-.91-4.93-3.6-7.51.49-7.63.49-7.63Z" fill="url(#i)"/><path d="M44.94 43.01c-.27-.48-1.58-1.83-1.79-2.19-.84-1.41-1.47-3.04-1.64-7.85-.03-.74-.43-1.37-1.02-1.69v-.22h-.04c-.14 0-.27.02-.4.05-.13-.03-.26-.05-.4-.05h-.04v.22c-.58.32-.99.95-1.01 1.69-.17 4.81-.57 6.35-1.41 7.76-.21.36-1.25 1.52-1.56 1.97-.66.94-1.09 2.87.24 4.15.27.26 1.47.17 2.08-.02 1.69-.52 3.59-.54 5.19-.16.52.12 1.33.02 1.56-.2 1.33-1.28.65-2.71.24-3.45v-.01Z" fill="url(#j)"/><path d="M39.64 46.39c-.19 0-.36.13-.39.31-.29 1.47.17 3.19 2.12 3.19 1.65 0 .45-2.49.3-3.19-.04-.17-.2-.29-.39-.3h-1.64v-.01Z" fill="url(#k)"/><path d="m45.31 28.29-2.06 2.86c-.37.38-.05 2.63.03 3.2.28 2.06 1.31 3.85 4.84 5.5 1.55.72 5.11-.01 6.41-.89 4.58-3.12-.96-3.68-2.56-7.1-.02-.04.8-3 .79-3.05-.49-1.07-6.23-.14-7.45-.52Z" fill="url(#l)"/><path d="M34.68 28s2.96 4.38 2.88 4.94c0 .07-.27 7.63-11.08 6.3-3.94-.49-2.69-2.41-1.09-5.83.02-.04 4.66-1.26 4.66-1.3 1.24-4.48 3.41-3.73 4.63-4.11Z" fill="url(#m)"/><path d="M34.59 26.85c-.41-.1-1.86-.83-2.93-.94l-2.9 1.19.44-.67c-1.34.11-3.64 1.34-4.86 2.7-1.11.7-1.66 2.59-2.1 4.24l.3.29c2.94-4.17 4.68-4.7 8.79-4.78.58-.01 4.15.12 4.15.12l-.88-2.16-.01.01Z" fill="url(#n)"/><path d="M55.92 28.06c0-.3-5.46-2.79-7.52-2.22-.32.09-.37 1.2-.69 1.29-.28.08-.28-.66-.55-.58-.54.16-1.51-.15-1.51-.15s-.38 1.74-.21 2.47c0 0 6.73-.83 10.58 1.8 1.41.96 1.79 2.2 1.91 2.89l.51.14c.12-1.28-.43-3.62-2.5-5.65l-.02.01Z" fill="url(#o)"/><path d="M42.55 41.08c-.5-1.15-.9-1.48-2.01-1.48-1.11 0-1.58.3-2.01 1.48-.43 1.18-3.21 1.83-2.7 3.74.18.69.22-1.56 2.89-1.56.37 0 .96.49 1.71.49 1.1 0 1.54-.58 1.99-.59.74 0 .91 0 1.14.14 1.01.59.8 1.97 1.09 1.62 1.24-1.5-1.95-3.49-2.11-3.85l.01.01Z" fill="url(#p)"/><path d="M45.91 22.14c9.85-2.46 12.8 6.32 12.8 6.32s-1.79-2.43-5.42-4.24-7.38-2.07-7.38-2.07v-.01Z" fill="url(#q)"/><path d="M50.26 40.06c-.66.09-2.66.48-4.01-.96 0 0-.94-1.33.73-.17 1.67 1.16 3.28 1.12 3.28 1.12v.01Z" fill="url(#r)"/><path d="M29.86 39.35c.82.03 3.26.25 4.92-1.22 0 0 1.15-1.34-.9-.1s-4.02 1.32-4.02 1.32Z" fill="url(#s)"/><path d="M25.06 36.96c-.59-1.26 1.53-3.55 1.53-3.55 3.93-3.57 7.52-.87 9.14.76.11.11 1.31-1.14 1.43-1.03l-1.89 2.68s-1.71-1.31-2.84-1.55c0 0-4.78 1.88-5.54 2.77l-1.84-.08h.01Z" fill="url(#t)"/><path d="m35.27 35.82-.41.17s-.72 1.64-4.74 1.61c-2.28-.02-3.52-.7-3.52-.7s.05-1.08.06-1.18c.24-2.37 6.69-5.11 8.6.1h.01Z" fill="#fff"/><path d="M29.02 36.68c.02 1.25 1.03 2.25 2.24 2.22 1.21-.03 2.18-1.06 2.16-2.31-.02-1.25-1.03-2.25-2.24-2.22-1.21.03-2.18 1.06-2.16 2.31Z" fill="url(#u)"/><path d="M31.06 36.207c.002-.331-.248-.6-.557-.602-.31-.001-.561.266-.563.598 0 .331.249.6.558.602.31.001.561-.266.563-.598Z" fill="#fff"/><path d="M32.64 33.06c-.09-.81-3.21-.33-4.24.24-1.02.58-2.02 1.84-2.42 3.3l.62.3s.5-2.56 2.35-3.39c1.85-.83 3.68-.46 3.68-.46l.01.01Z" fill="url(#v)"/><path d="M55.82 36.96c.59-1.26-1.53-3.55-1.53-3.55-5.03-4.56-8.25.31-8.95 1.01l.26 1.4s1.71-1.31 2.84-1.55c0 0 4.78 1.88 5.54 2.77l1.84-.08Z" fill="url(#w)"/><path d="M38.31 43.52c.74.03.7-.11.89.54.12.42-.18.35-.69.87-.29.29-.76 1.26-.97 1.4-.58.39-1.35-.18-.94-1.42.41-1.24 1.46-1.39 1.71-1.39Z" fill="url(#x)"/><path d="M42.95 43.56c-.74.03-.82-.29-1.01.37-.12.42 0 .35.51.87.29.29.65 1.24.86 1.38.58.39 1.39 0 .97-1.23-.41-1.24-1.09-1.38-1.33-1.38v-.01Z" fill="url(#y)"/><path d="M36.17 24.02c-2.42-.91-8.91-1.81-13.24 2.45 0 0 3.39-2.37 7.71-2.2 4.9.19 6.59.79 7.2 1.43 2.86 3.01 1.13 3.42 1.51 3.9.38.48.89 1.2.89 1.2s.88-4.93-4.07-6.79v.01Z" fill="url(#z)"/><path d="M38 22.5c2.3 1.66 2.68 2.3 4.54 1.6 1.85-.7 2.3-1.02 2.3-1.02s-1.6.45-4.28.13c-1.93-.23-2.56-.7-2.56-.7v-.01Z" fill="url(#A)"/><path d="M35.45 61.63c-.99-4.54 9.51.81 10.04-.85.53-1.66-.41 6.78-4.5 6.59-4.09-.2-5.01-3.3-5.54-5.74Z" fill="url(#B)"/><path d="M35.65 62.31c2.66 2.12 5.1 2.74 6.97 1.8 1.87-.93 2.54-1.54 2.54-1.54s-.46 3.17-4.65 3.19c-4.37.02-4.87-3.46-4.87-3.46l.01.01Z" fill="url(#C)"/><path d="M43.68 62.75c-1.1.39-6.2.48-7.16.14-2.27-.8-1.25-4.31-1.25-4.31s1.13-6.63 3.52-7.53c.89-.34 3.67.1 4.43.24 1.25.24 2.03 6.5 2.03 6.5s.71 4.16-1.56 4.96h-.01Z" fill="url(#D)"/><path d="M43.23 50.16c-.56-.37-1.75.46-2.32.46-.57 0-.7-.51-1.8-.45-1.79.1-3.48 4.81-4.26 9.3-.5 2.88 2.18 5.43 4.41 5.43.18 0 2.75-.02 2.9-.06 2.22-.19 3.44-1.75 3.44-4.7 0-4.44-.52-8.78-2.36-9.99l-.01.01Zm-.45 12.15c-1.69.75-3.45.73-5.45 0-1.72-.62-1.86-1.63-1.76-3.1.1-1.46 1.52-5.6 3.21-7.32.44-.45 1.05-.26 1.77-.31.99-.07 2.03-.16 2.46.21 2.16 1.92 2.04 5.35 2.04 6.64s-.26 2.98-2.26 3.87l-.01.01Z" fill="url(#E)"/><path d="M34.67 17.17c2.39-.72 7.75-1.43 13.12 1.07l-13.12-1.07Z" fill="url(#F)"/><path d="M22.58 47.27c.13 3.81 1.47 7.59 2.28 8.64l-2.28-8.64Z" fill="url(#G)"/><path d="M57.9 47.27c-.46 3.81-1.8 7.59-2.28 8.64l2.28-8.64Z" fill="url(#H)"/><path d="m26.89 37.04-1.94-.82-1.56.92 3.5-.1Z" fill="url(#I)"/><path d="m53.98 37.04 1.94-.82 1.56.92-3.5-.1Z" fill="url(#J)"/><path d="m45.6 35.82.41.17s.72 1.64 4.74 1.61c2.28-.02 3.52-.7 3.52-.7s-.05-1.08-.06-1.18c-.24-2.37-6.69-5.11-8.6.1h-.01Z" fill="#fff"/><path d="M51.85 36.68c-.02 1.25-1.03 2.25-2.24 2.22-1.21-.03-2.18-1.06-2.16-2.31.02-1.25 1.03-2.25 2.24-2.22 1.21.03 2.18 1.06 2.16 2.31Z" fill="url(#K)"/><path d="M50.377 36.796c.31-.002.559-.271.558-.603-.002-.33-.254-.599-.563-.597-.31.001-.559.27-.557.602.001.331.253.6.562.598Z" fill="#fff"/><path d="M48.23 33.06c.09-.81 3.21-.33 4.24.24 1.02.58 2.02 1.84 2.42 3.3l-.62.3s-.5-2.56-2.35-3.39c-1.85-.83-3.68-.46-3.68-.46l-.01.01Z" fill="url(#L)"/><defs><linearGradient id="a" x1="39.92" y1="30.75" x2="39.92" y2="21.29" gradientUnits="userSpaceOnUse"><stop stop-color="#221413"/><stop offset=".4" stop-color="#422721"/><stop offset="1" stop-color="#623C35"/></linearGradient><linearGradient id="d" x1="39.27" y1="32.95" x2="39.27" y2="6.15" gradientUnits="userSpaceOnUse"><stop stop-color="#221413"/><stop offset=".4" stop-color="#422721"/><stop offset="1" stop-color="#623C35"/></linearGradient><linearGradient id="e" x1="57.42" y1="32.87" x2="57.42" y2="5.9" gradientUnits="userSpaceOnUse"><stop stop-color="#221413"/><stop offset=".4" stop-color="#422721"/><stop offset="1" stop-color="#623C35"/></linearGradient><linearGradient id="f" x1="33.403" y1="44.27" x2="56.972" y2="76.902" gradientUnits="userSpaceOnUse"><stop stop-color="#E76148"/><stop offset=".31" stop-color="#F09072"/><stop offset=".58" stop-color="#F7B292"/><stop offset=".81" stop-color="#FBC7A5"/><stop offset=".96" stop-color="#FDCFAC"/></linearGradient><linearGradient id="g" x1="47.137" y1="44.222" x2="23.568" y2="76.854" gradientUnits="userSpaceOnUse"><stop stop-color="#E76148"/><stop offset=".31" stop-color="#F09072"/><stop offset=".58" stop-color="#F7B292"/><stop offset=".81" stop-color="#FBC7A5"/><stop offset=".96" stop-color="#FDCFAC"/></linearGradient><linearGradient id="h" x1="21.629" y1="44.246" x2="35.206" y2="52.211" gradientUnits="userSpaceOnUse"><stop stop-color="#E76148"/><stop offset=".31" stop-color="#F09072"/><stop offset=".58" stop-color="#F7B292"/><stop offset=".81" stop-color="#FBC7A5"/><stop offset=".96" stop-color="#FDCFAC"/></linearGradient><linearGradient id="i" x1="58.59" y1="43.857" x2="45.316" y2="51.641" gradientUnits="userSpaceOnUse"><stop stop-color="#E76148"/><stop offset=".31" stop-color="#F09072"/><stop offset=".58" stop-color="#F7B292"/><stop offset=".81" stop-color="#FBC7A5"/><stop offset=".96" stop-color="#FDCFAC"/></linearGradient><linearGradient id="j" x1="41.21" y1="72.96" x2="39.75" y2="30.58" gradientUnits="userSpaceOnUse"><stop stop-color="#E76148"/><stop offset=".31" stop-color="#F09072"/><stop offset=".58" stop-color="#F7B292"/><stop offset=".81" stop-color="#FBC7A5"/><stop offset=".96" stop-color="#FDCFAC"/></linearGradient><linearGradient id="k" x1="36.58" y1="48.51" x2="41.82" y2="48.02" gradientUnits="userSpaceOnUse"><stop stop-color="#E76148"/><stop offset=".31" stop-color="#F09072"/><stop offset=".58" stop-color="#F7B292"/><stop offset=".81" stop-color="#FBC7A5"/><stop offset=".96" stop-color="#FDCFAC"/></linearGradient><linearGradient id="l" x1="41.75" y1="13.49" x2="57.52" y2="57.08" gradientUnits="userSpaceOnUse"><stop stop-color="#F09072"/><stop offset=".38" stop-color="#F7B291"/><stop offset=".69" stop-color="#FBC7A5"/><stop offset=".89" stop-color="#FDCFAC"/></linearGradient><linearGradient id="m" x1="38.75" y1="13.06" x2="22.66" y2="57.52" gradientUnits="userSpaceOnUse"><stop stop-color="#F09072"/><stop offset=".38" stop-color="#F7B291"/><stop offset=".69" stop-color="#FBC7A5"/><stop offset=".89" stop-color="#FDCFAC"/></linearGradient><linearGradient id="n" x1="21.96" y1="30.279" x2="35.48" y2="28.997" gradientUnits="userSpaceOnUse"><stop stop-color="#422721"/><stop offset="1" stop-color="#623C35"/></linearGradient><linearGradient id="o" x1="45.318" y1="27.923" x2="59.022" y2="30.736" gradientUnits="userSpaceOnUse"><stop stop-color="#422721"/><stop offset="1" stop-color="#623C35"/></linearGradient><linearGradient id="p" x1="41.53" y1="53.36" x2="39.88" y2="40.59" gradientUnits="userSpaceOnUse"><stop stop-color="#F09072"/><stop offset=".38" stop-color="#F7B291"/><stop offset=".69" stop-color="#FBC7A5"/><stop offset=".89" stop-color="#FDCFAC"/></linearGradient><linearGradient id="q" x1="62.11" y1="15.66" x2="50.18" y2="27.4" gradientUnits="userSpaceOnUse"><stop stop-color="#E76148"/><stop offset=".31" stop-color="#F09072"/><stop offset=".58" stop-color="#F7B292"/><stop offset=".81" stop-color="#FBC7A5"/><stop offset=".96" stop-color="#FDCFAC"/></linearGradient><linearGradient id="r" x1="51.156" y1="32.98" x2="45.643" y2="44.836" gradientUnits="userSpaceOnUse"><stop stop-color="#E76148"/><stop offset=".31" stop-color="#F09072"/><stop offset=".58" stop-color="#F7B292"/><stop offset=".81" stop-color="#FBC7A5"/><stop offset=".96" stop-color="#FDCFAC"/></linearGradient><linearGradient id="s" x1="28.45" y1="30.318" x2="35.662" y2="44.485" gradientUnits="userSpaceOnUse"><stop stop-color="#E76148"/><stop offset=".31" stop-color="#F09072"/><stop offset=".58" stop-color="#F7B292"/><stop offset=".81" stop-color="#FBC7A5"/><stop offset=".96" stop-color="#FDCFAC"/></linearGradient><linearGradient id="t" x1="34.5" y1="19.95" x2="26.98" y2="52.2" gradientUnits="userSpaceOnUse"><stop stop-color="#E76148"/><stop offset=".52" stop-color="#F5AB8B"/><stop offset=".56" stop-color="#F5B08F"/><stop offset=".59" stop-color="#F5B291"/><stop offset=".81" stop-color="#FBC7A4"/><stop offset=".96" stop-color="#FDCFAC"/></linearGradient><linearGradient id="u" x1="31.04" y1="27.309" x2="31.366" y2="43.866" gradientUnits="userSpaceOnUse"><stop stop-color="#422721"/><stop offset="1" stop-color="#623C35"/></linearGradient><linearGradient id="v" x1="25.96" y1="34.83" x2="32.68" y2="34.69" gradientUnits="userSpaceOnUse"><stop stop-color="#422721"/><stop offset="1" stop-color="#623C35"/></linearGradient><linearGradient id="w" x1="46.87" y1="19.36" x2="54.58" y2="52.41" gradientUnits="userSpaceOnUse"><stop stop-color="#E76148"/><stop offset=".52" stop-color="#F5AB8B"/><stop offset=".56" stop-color="#F5B08F"/><stop offset=".59" stop-color="#F5B291"/><stop offset=".81" stop-color="#FBC7A4"/><stop offset=".96" stop-color="#FDCFAC"/></linearGradient><linearGradient id="x" x1="31.38" y1="51.6" x2="38.47" y2="43.97" gradientUnits="userSpaceOnUse"><stop offset=".18" stop-color="#D0A88B" stop-opacity="0"/><stop offset=".39" stop-color="#D0A88B"/><stop offset=".69" stop-color="#C79174"/><stop offset="1" stop-color="#C07D60"/></linearGradient><linearGradient id="y" x1="49.22" y1="51.2" x2="42.53" y2="44" gradientUnits="userSpaceOnUse"><stop offset=".18" stop-color="#D0A88B" stop-opacity="0"/><stop offset=".39" stop-color="#D0A88B"/><stop offset=".69" stop-color="#C79174"/><stop offset="1" stop-color="#C07D60"/></linearGradient><linearGradient id="z" x1="52.34" y1="8.23" x2="27.3" y2="32.86" gradientUnits="userSpaceOnUse"><stop stop-color="#E76148"/><stop offset=".31" stop-color="#F09072"/><stop offset=".58" stop-color="#F7B292"/><stop offset=".81" stop-color="#FBC7A5"/><stop offset=".96" stop-color="#FDCFAC"/></linearGradient><linearGradient id="A" x1="36.63" y1="29.89" x2="42.19" y2="21.65" gradientUnits="userSpaceOnUse"><stop stop-color="#E76148"/><stop offset=".31" stop-color="#F09072"/><stop offset=".58" stop-color="#F7B292"/><stop offset=".81" stop-color="#FBC7A5"/><stop offset=".96" stop-color="#FDCFAC"/></linearGradient><linearGradient id="B" x1="37.05" y1="51.7" x2="47.57" y2="80.79" gradientUnits="userSpaceOnUse"><stop stop-color="#F09072"/><stop offset=".38" stop-color="#F7B291"/><stop offset=".69" stop-color="#FBC7A5"/><stop offset=".89" stop-color="#FDCFAC"/></linearGradient><linearGradient id="C" x1="50.53" y1="40.78" x2="22.02" y2="102.12" gradientUnits="userSpaceOnUse"><stop stop-color="#E76148"/><stop offset=".31" stop-color="#F09072"/><stop offset=".58" stop-color="#F7B292"/><stop offset=".81" stop-color="#FBC7A5"/><stop offset=".96" stop-color="#FDCFAC"/></linearGradient><linearGradient id="D" x1="47.7" y1="35.13" x2="39.31" y2="62.31" gradientUnits="userSpaceOnUse"><stop stop-color="#606068"/><stop offset=".53" stop-color="#1E252F"/></linearGradient><linearGradient id="E" x1="39.82" y1="41.85" x2="40.62" y2="81.34" gradientUnits="userSpaceOnUse"><stop stop-color="#D86D6A"/><stop offset=".23" stop-color="#E18E84"/><stop offset=".51" stop-color="#EAB0A0"/><stop offset=".74" stop-color="#F0C5B0"/><stop offset=".89" stop-color="#F3CDB7"/></linearGradient><linearGradient id="F" x1="32.28" y1="30.97" x2="42.72" y2="15.49" gradientUnits="userSpaceOnUse"><stop stop-color="#E76148"/><stop offset=".31" stop-color="#F09072"/><stop offset=".58" stop-color="#F7B292"/><stop offset=".81" stop-color="#FBC7A5"/><stop offset=".96" stop-color="#FDCFAC"/></linearGradient><linearGradient id="G" x1="31.784" y1="49.082" x2="18.457" y2="53.215" gradientUnits="userSpaceOnUse"><stop stop-color="#E76148"/><stop offset=".31" stop-color="#F09072"/><stop offset=".58" stop-color="#F7B292"/><stop offset=".81" stop-color="#FBC7A5"/><stop offset=".96" stop-color="#FDCFAC"/></linearGradient><linearGradient id="H" x1="51.164" y1="49.712" x2="60.329" y2="52.56" gradientUnits="userSpaceOnUse"><stop stop-color="#E76148"/><stop offset=".31" stop-color="#F09072"/><stop offset=".58" stop-color="#F7B292"/><stop offset=".81" stop-color="#FBC7A5"/><stop offset=".96" stop-color="#FDCFAC"/></linearGradient><linearGradient id="I" x1="27.84" y1="36.41" x2="17.84" y2="37.52" gradientUnits="userSpaceOnUse"><stop stop-color="#E76148"/><stop offset=".04" stop-color="#E96F54"/><stop offset=".12" stop-color="#EF8C6F"/><stop offset=".22" stop-color="#F4A585"/><stop offset=".33" stop-color="#F8B796"/><stop offset=".46" stop-color="#FBC5A2"/><stop offset=".63" stop-color="#FCCCA9"/><stop offset=".96" stop-color="#FDCFAC"/></linearGradient><linearGradient id="J" x1="53.04" y1="36.41" x2="63.03" y2="37.52" gradientUnits="userSpaceOnUse"><stop stop-color="#E76148"/><stop offset=".04" stop-color="#E96F54"/><stop offset=".12" stop-color="#EF8C6F"/><stop offset=".22" stop-color="#F4A585"/><stop offset=".33" stop-color="#F8B796"/><stop offset=".46" stop-color="#FBC5A2"/><stop offset=".63" stop-color="#FCCCA9"/><stop offset=".96" stop-color="#FDCFAC"/></linearGradient><linearGradient id="K" x1="49.842" y1="27.128" x2="49.516" y2="43.675" gradientUnits="userSpaceOnUse"><stop stop-color="#422721"/><stop offset="1" stop-color="#623C35"/></linearGradient><linearGradient id="L" x1="54.92" y1="34.83" x2="48.2" y2="34.69" gradientUnits="userSpaceOnUse"><stop stop-color="#422721"/><stop offset="1" stop-color="#623C35"/></linearGradient><radialGradient id="b" cx="0" cy="0" r="1" gradientUnits="userSpaceOnUse" gradientTransform="rotate(-3.05 869.929 -528.517) scale(20.8098 14.9242)"><stop stop-color="#E76148"/><stop offset=".29" stop-color="#F09072"/><stop offset=".54" stop-color="#F7B292"/><stop offset=".75" stop-color="#FBC7A5"/><stop offset=".89" stop-color="#FDCFAC"/></radialGradient><radialGradient id="c" cx="0" cy="0" r="1" gradientUnits="userSpaceOnUse" gradientTransform="matrix(-21.97498 -1.00172 .7184 -15.75983 48.674 45.094)"><stop stop-color="#E76148"/><stop offset=".29" stop-color="#F09072"/><stop offset=".54" stop-color="#F7B292"/><stop offset=".75" stop-color="#FBC7A5"/><stop offset=".89" stop-color="#FDCFAC"/></radialGradient></defs></svg>